<?xml version="1.0" encoding="iso-8859-1"?>
<!-- Uploaded to: SVG Repo, www.svgrepo.com, Generator: SVG Repo Mixer Tools -->
<!DOCTYPE svg PUBLIC "-//W3C//DTD SVG 1.1//EN" "http://www.w3.org/Graphics/SVG/1.1/DTD/svg11.dtd">
<svg fill="#000000" version="1.1" id="Capa_1" xmlns="http://www.w3.org/2000/svg" xmlns:xlink="http://www.w3.org/1999/xlink" 
	 width="800px" height="800px" viewBox="0 0 251.964 251.964"
	 xml:space="preserve">
<g>
	<g id="Layer_10_13_">
		<path d="M251.964,170.468V31.555H0v138.913h108.605v24.141c-29.858,1.772-51.943,7.973-51.943,15.381
			c0,8.78,31.034,10.42,69.32,10.42s69.317-1.64,69.317-10.42c0-7.439-22.262-13.665-52.304-15.401v-24.12H251.964L251.964,170.468z
			 M125.441,165.842c-3.359,0-6.088-2.728-6.088-6.089s2.724-6.089,6.088-6.089s6.088,2.728,6.088,6.089
			S128.81,165.842,125.441,165.842z M17.732,147.546v-93.06h216.504v93.06H17.732z"/>
	</g>
</g>
</svg>